ffmpeg started on 2025-06-16 at 16:46:23
Report written to "D:\Convert\FFMetrics\reports\psnr_report-6.txt"
Log level: 32
Command line:
ffmpeg -hide_banner -nostdin -i "G:\\\xc0\xed\xe8\xec\xe5\\[\xd2\xee\xef]\\\xd0\xfb\xf6\xe0\xf0\xfc-\xe2\xe0\xec\xef\xe8\xf0\\\xd2\xc2-2\\[JamClub] Vampire Knight Guilty - 02_HEVC.mkv" -i "G:\\\xc0\xed\xe8\xec\xe5\\[\xd2\xee\xef]\\\xd0\xfb\xf6\xe0\xf0\xfc-\xe2\xe0\xec\xef\xe8\xf0\\\xd2\xc2-2\\[JamClub] Vampire Knight Guilty - 02.mp4" -lavfi "[0:v]settb=AVTB,setpts=PTS-STARTPTS,format=pix_fmts=yuv420p10,fps=24000/1001,scale=1920:1080:flags=bicubic[main];[1:v]settb=AVTB,setpts=PTS-STARTPTS,format=pix_fmts=yuv420p,fps=24000/1001,scale=1920:1080:flags=bicubic[ref];[main][ref]psnr=eof_action=endall:stats_file='D\\:/Convert/FFMetrics/logs/psnr_logfile-6.txt'" -f null -
Input #0, matroska,webm, from 'G:\Аниме\[Топ]\Рыцарь-вампир\ТВ-2\[JamClub] Vampire Knight Guilty - 02_HEVC.mkv':
  Metadata:
    COMPATIBLE_BRANDS: isomiso2avc1mp41
    MAJOR_BRAND     : isom
    MINOR_VERSION   : 512
    ENCODER         : Lavf61.7.100
  Duration: 00:24:22.61, start: -0.001000, bitrate: 1053 kb/s
  Stream #0:0: Video: hevc (Main 10), yuv420p10le(tv, bt709, progressive), 1920x1080 [SAR 1:1 DAR 16:9], 23.98 fps, 23.98 tbr, 1k tbn (default)
      Metadata:
        HANDLER_NAME    : VideoHandler
        VENDOR_ID       : [0][0][0][0]
        ENCODER         : Lavc61.19.100 libx265
        BPS             : 854132
        DURATION        : 00:24:22.544708333
        NUMBER_OF_FRAMES: 43699
        NUMBER_OF_BYTES : 156150709
        _STATISTICS_WRITING_APP: mkvpropedit v66.0.0 ('Josie') 64-bit
        _STATISTICS_WRITING_DATE_UTC: 2025-06-16 10:15:43
        _STATISTICS_TAGS: BPS DURATION NUMBER_OF_FRAMES NUMBER_OF_BYTES
  Stream #0:1(eng): Audio: aac (LC), 48000 Hz, stereo, fltp (default)
      Metadata:
        HANDLER_NAME    : SoundHandler
        VENDOR_ID       : [0][0][0][0]
        ENCODER         : Lavc61.19.100 aac
        BPS             : 194848
        DURATION        : 00:24:22.565000000
        NUMBER_OF_FRAMES: 68559
        NUMBER_OF_BYTES : 35622259
        _STATISTICS_WRITING_APP: mkvpropedit v66.0.0 ('Josie') 64-bit
        _STATISTICS_WRITING_DATE_UTC: 2025-06-16 10:15:43
        _STATISTICS_TAGS: BPS DURATION NUMBER_OF_FRAMES NUMBER_OF_BYTES
Input #1, mov,mp4,m4a,3gp,3g2,mj2, from 'G:\Аниме\[Топ]\Рыцарь-вампир\ТВ-2\[JamClub] Vampire Knight Guilty - 02.mp4':
  Metadata:
    major_brand     : isom
    minor_version   : 512
    compatible_brands: isomiso2avc1mp41
    encoder         : Lavf60.16.100
  Duration: 00:24:22.59, start: 0.000000, bitrate: 3106 kb/s
  Stream #1:0[0x1](und): Video: h264 (High) (avc1 / 0x31637661), yuv420p(progressive), 1920x1080 [SAR 1:1 DAR 16:9], 2905 kb/s, 29.88 fps, 23.98 tbr, 90k tbn (default)
      Metadata:
        handler_name    : VideoHandler
        vendor_id       : [0][0][0][0]
  Stream #1:1[0x2](eng): Audio: aac (LC) (mp4a / 0x6134706D), 48000 Hz, stereo, fltp, 191 kb/s (default)
      Metadata:
        handler_name    : SoundHandler
        vendor_id       : [0][0][0][0]
Stream mapping:
  Stream #0:0 (hevc) -> settb:default
  Stream #1:0 (h264) -> settb:default
  psnr:default -> Stream #0:0 (wrapped_avframe)
  Stream #0:1 -> #0:1 (aac (native) -> pcm_s16le (native))
Output #0, null, to 'pipe:':
  Metadata:
    COMPATIBLE_BRANDS: isomiso2avc1mp41
    MAJOR_BRAND     : isom
    MINOR_VERSION   : 512
    encoder         : Lavf61.7.100
  Stream #0:0: Video: wrapped_avframe, yuv420p10le(tv, bt709, progressive), 1920x1080 [SAR 1:1 DAR 16:9], q=2-31, 200 kb/s, 23.98 fps, 23.98 tbn
      Metadata:
        encoder         : Lavc61.19.100 wrapped_avframe
  Stream #0:1(eng): Audio: pcm_s16le, 48000 Hz, stereo, s16, 1536 kb/s (default)
      Metadata:
        HANDLER_NAME    : SoundHandler
        VENDOR_ID       : [0][0][0][0]
        _STATISTICS_TAGS: BPS DURATION NUMBER_OF_FRAMES NUMBER_OF_BYTES
        BPS             : 194848
        DURATION        : 00:24:22.565000000
        NUMBER_OF_FRAMES: 68559
        NUMBER_OF_BYTES : 35622259
        _STATISTICS_WRITING_APP: mkvpropedit v66.0.0 ('Josie') 64-bit
        _STATISTICS_WRITING_DATE_UTC: 2025-06-16 10:15:43
        encoder         : Lavc61.19.100 pcm_s16le
frame=  101 fps=0.0 q=-0.0 size=N/A time=00:00:04.21 bitrate=N/A speed=8.06x    frame=  254 fps=246 q=-0.0 size=N/A time=00:00:10.59 bitrate=N/A speed=10.3x    frame=  433 fps=279 q=-0.0 size=N/A time=00:00:18.05 bitrate=N/A speed=11.6x    frame=  645 fps=311 q=-0.0 size=N/A time=00:00:26.90 bitrate=N/A speed=  13x    frame=  841 fps=325 q=-0.0 size=N/A time=00:00:35.07 bitrate=N/A speed=13.6x    frame= 1027 fps=332 q=-0.0 size=N/A time=00:00:42.83 bitrate=N/A speed=13.8x    frame= 1238 fps=342 q=-0.0 size=N/A time=00:00:51.63 bitrate=N/A speed=14.3x    frame= 1458 fps=353 q=-0.0 size=N/A time=00:01:00.81 bitrate=N/A speed=14.7x    frame= 1684 fps=363 q=-0.0 size=N/A time=00:01:10.23 bitrate=N/A speed=15.1x    frame= 1927 fps=374 q=-0.0 size=N/A time=00:01:20.37 bitrate=N/A speed=15.6x    frame= 2180 fps=383 q=-0.0 size=N/A time=00:01:30.92 bitrate=N/A speed=  16x    frame= 2421 fps=391 q=-0.0 size=N/A time=00:01:40.97 bitrate=N/A speed=16.3x    frame= 2667 fps=397 q=-0.0 size=N/A time=00:01:51.23 bitrate=N/A speed=16.6x    frame= 2883 fps=399 q=-0.0 size=N/A time=00:02:00.24 bitrate=N/A speed=16.7x    frame= 3095 fps=400 q=-0.0 size=N/A time=00:02:09.08 bitrate=N/A speed=16.7x    frame= 3295 fps=399 q=-0.0 size=N/A time=00:02:17.42 bitrate=N/A speed=16.7x    frame= 3492 fps=398 q=-0.0 size=N/A time=00:02:25.64 bitrate=N/A speed=16.6x    frame= 3685 fps=397 q=-0.0 size=N/A time=00:02:33.69 bitrate=N/A speed=16.6x    frame= 3905 fps=398 q=-0.0 size=N/A time=00:02:42.87 bitrate=N/A speed=16.6x    frame= 4106 fps=398 q=-0.0 size=N/A time=00:02:51.25 bitrate=N/A speed=16.6x    frame= 4303 fps=397 q=-0.0 size=N/A time=00:02:59.47 bitrate=N/A speed=16.6x    frame= 4450 fps=392 q=-0.0 size=N/A time=00:03:05.60 bitrate=N/A speed=16.3x    frame= 4664 fps=393 q=-0.0 size=N/A time=00:03:14.52 bitrate=N/A speed=16.4x    frame= 4879 fps=394 q=-0.0 size=N/A time=00:03:23.49 bitrate=N/A speed=16.4x    frame= 5078 fps=394 q=-0.0 size=N/A time=00:03:31.79 bitrate=N/A speed=16.4x    frame= 5301 fps=395 q=-0.0 size=N/A time=00:03:41.09 bitrate=N/A speed=16.5x    frame= 5533 fps=397 q=-0.0 size=N/A time=00:03:50.77 bitrate=N/A speed=16.6x    frame= 5775 fps=400 q=-0.0 size=N/A time=00:04:00.86 bitrate=N/A speed=16.7x    frame= 5997 fps=401 q=-0.0 size=N/A time=00:04:10.12 bitrate=N/A speed=16.7x    frame= 6236 fps=403 q=-0.0 size=N/A time=00:04:20.09 bitrate=N/A speed=16.8x    frame= 6445 fps=403 q=-0.0 size=N/A time=00:04:28.81 bitrate=N/A speed=16.8x    frame= 6667 fps=403 q=-0.0 size=N/A time=00:04:38.06 bitrate=N/A speed=16.8x    frame= 6897 fps=405 q=-0.0 size=N/A time=00:04:47.66 bitrate=N/A speed=16.9x    frame= 7106 fps=405 q=-0.0 size=N/A time=00:04:56.37 bitrate=N/A speed=16.9x    frame= 7340 fps=406 q=-0.0 size=N/A time=00:05:06.13 bitrate=N/A speed=16.9x    frame= 7583 fps=408 q=-0.0 size=N/A time=00:05:16.27 bitrate=N/A speed=  17x    frame= 7813 fps=409 q=-0.0 size=N/A time=00:05:25.86 bitrate=N/A speed=17.1x    frame= 8029 fps=409 q=-0.0 size=N/A time=00:05:34.87 bitrate=N/A speed=17.1x    frame= 8259 fps=410 q=-0.0 size=N/A time=00:05:44.46 bitrate=N/A speed=17.1x    frame= 8492 fps=411 q=-0.0 size=N/A time=00:05:54.18 bitrate=N/A speed=17.2x    frame= 8719 fps=412 q=-0.0 size=N/A time=00:06:03.65 bitrate=N/A speed=17.2x    frame= 8951 fps=413 q=-0.0 size=N/A time=00:06:13.33 bitrate=N/A speed=17.2x    frame= 9182 fps=414 q=-0.0 size=N/A time=00:06:22.96 bitrate=N/A speed=17.3x    frame= 9400 fps=414 q=-0.0 size=N/A time=00:06:32.05 bitrate=N/A speed=17.3x    frame= 9644 fps=415 q=-0.0 size=N/A time=00:06:42.23 bitrate=N/A speed=17.3x    frame= 9870 fps=416 q=-0.0 size=N/A time=00:06:51.66 bitrate=N/A speed=17.3x    frame=10089 fps=416 q=-0.0 size=N/A time=00:07:00.79 bitrate=N/A speed=17.3x    frame=10320 fps=417 q=-0.0 size=N/A time=00:07:10.43 bitrate=N/A speed=17.4x    frame=10549 fps=417 q=-0.0 size=N/A time=00:07:19.98 bitrate=N/A speed=17.4x    frame=10789 fps=418 q=-0.0 size=N/A time=00:07:29.99 bitrate=N/A speed=17.4x    frame=11036 fps=419 q=-0.0 size=N/A time=00:07:40.29 bitrate=N/A speed=17.5x    frame=11291 fps=421 q=-0.0 size=N/A time=00:07:50.92 bitrate=N/A speed=17.5x    frame=11539 fps=422 q=-0.0 size=N/A time=00:08:01.27 bitrate=N/A speed=17.6x    frame=11766 fps=422 q=-0.0 size=N/A time=00:08:10.74 bitrate=N/A speed=17.6x    frame=11978 fps=422 q=-0.0 size=N/A time=00:08:19.58 bitrate=N/A speed=17.6x    frame=12200 fps=422 q=-0.0 size=N/A time=00:08:28.84 bitrate=N/A speed=17.6x    frame=12450 fps=423 q=-0.0 size=N/A time=00:08:39.26 bitrate=N/A speed=17.6x    frame=12680 fps=423 q=-0.0 size=N/A time=00:08:48.86 bitrate=N/A speed=17.7x    frame=12905 fps=424 q=-0.0 size=N/A time=00:08:58.24 bitrate=N/A speed=17.7x    frame=13150 fps=424 q=-0.0 size=N/A time=00:09:08.46 bitrate=N/A speed=17.7x    frame=13376 fps=425 q=-0.0 size=N/A time=00:09:17.89 bitrate=N/A speed=17.7x    frame=13617 fps=426 q=-0.0 size=N/A time=00:09:27.94 bitrate=N/A speed=17.7x    frame=13856 fps=426 q=-0.0 size=N/A time=00:09:37.91 bitrate=N/A speed=17.8x    frame=14099 fps=427 q=-0.0 size=N/A time=00:09:48.04 bitrate=N/A speed=17.8x    frame=14295 fps=426 q=-0.0 size=N/A time=00:09:56.22 bitrate=N/A speed=17.8x    frame=14527 fps=426 q=-0.0 size=N/A time=00:10:05.89 bitrate=N/A speed=17.8x    frame=14763 fps=427 q=-0.0 size=N/A time=00:10:15.74 bitrate=N/A speed=17.8x    frame=15004 fps=428 q=-0.0 size=N/A time=00:10:25.79 bitrate=N/A speed=17.8x    frame=15250 fps=428 q=-0.0 size=N/A time=00:10:36.05 bitrate=N/A speed=17.9x    frame=15488 fps=429 q=-0.0 size=N/A time=00:10:45.97 bitrate=N/A speed=17.9x    frame=15706 fps=429 q=-0.0 size=N/A time=00:10:55.07 bitrate=N/A speed=17.9x    frame=15949 fps=429 q=-0.0 size=N/A time=00:11:05.20 bitrate=N/A speed=17.9x    frame=16146 fps=428 q=-0.0 size=N/A time=00:11:13.42 bitrate=N/A speed=17.9x    frame=16369 fps=429 q=-0.0 size=N/A time=00:11:22.72 bitrate=N/A speed=17.9x    frame=16574 fps=428 q=-0.0 size=N/A time=00:11:31.27 bitrate=N/A speed=17.9x    frame=16793 fps=428 q=-0.0 size=N/A time=00:11:40.40 bitrate=N/A speed=17.9x    frame=17020 fps=428 q=-0.0 size=N/A time=00:11:49.87 bitrate=N/A speed=17.9x    frame=17245 fps=428 q=-0.0 size=N/A time=00:11:59.26 bitrate=N/A speed=17.9x    frame=17476 fps=429 q=-0.0 size=N/A time=00:12:08.89 bitrate=N/A speed=17.9x    frame=17714 fps=429 q=-0.0 size=N/A time=00:12:18.82 bitrate=N/A speed=17.9x    frame=17941 fps=429 q=-0.0 size=N/A time=00:12:28.28 bitrate=N/A speed=17.9x    frame=18144 fps=429 q=-0.0 size=N/A time=00:12:36.75 bitrate=N/A speed=17.9x    frame=18344 fps=428 q=-0.0 size=N/A time=00:12:45.09 bitrate=N/A speed=17.9x    frame=18559 fps=428 q=-0.0 size=N/A time=00:12:54.06 bitrate=N/A speed=17.8x    frame=18778 fps=428 q=-0.0 size=N/A time=00:13:03.19 bitrate=N/A speed=17.8x    frame=19004 fps=428 q=-0.0 size=N/A time=00:13:12.62 bitrate=N/A speed=17.9x    frame=19245 fps=429 q=-0.0 size=N/A time=00:13:22.67 bitrate=N/A speed=17.9x    frame=19492 fps=429 q=-0.0 size=N/A time=00:13:32.97 bitrate=N/A speed=17.9x    frame=19727 fps=429 q=-0.0 size=N/A time=00:13:42.78 bitrate=N/A speed=17.9x    frame=19969 fps=430 q=-0.0 size=N/A time=00:13:52.87 bitrate=N/A speed=17.9x    frame=20144 fps=429 q=-0.0 size=N/A time=00:14:00.17 bitrate=N/A speed=17.9x    frame=20372 fps=429 q=-0.0 size=N/A time=00:14:09.68 bitrate=N/A speed=17.9x    frame=20577 fps=429 q=-0.0 size=N/A time=00:14:18.23 bitrate=N/A speed=17.9x    frame=20809 fps=429 q=-0.0 size=N/A time=00:14:27.90 bitrate=N/A speed=17.9x    frame=21054 fps=429 q=-0.0 size=N/A time=00:14:38.12 bitrate=N/A speed=17.9x    frame=21278 fps=429 q=-0.0 size=N/A time=00:14:47.46 bitrate=N/A speed=17.9x    frame=21509 fps=430 q=-0.0 size=N/A time=00:14:57.10 bitrate=N/A speed=17.9x    frame=21739 fps=430 q=-0.0 size=N/A time=00:15:06.69 bitrate=N/A speed=17.9x    frame=21973 fps=430 q=-0.0 size=N/A time=00:15:16.45 bitrate=N/A speed=17.9x    frame=22217 fps=430 q=-0.0 size=N/A time=00:15:26.63 bitrate=N/A speed=  18x    frame=22465 fps=431 q=-0.0 size=N/A time=00:15:36.97 bitrate=N/A speed=  18x    frame=22685 fps=431 q=-0.0 size=N/A time=00:15:46.15 bitrate=N/A speed=  18x    frame=22923 fps=431 q=-0.0 size=N/A time=00:15:56.08 bitrate=N/A speed=  18x    frame=23156 fps=431 q=-0.0 size=N/A time=00:16:05.79 bitrate=N/A speed=  18x    frame=23408 fps=432 q=-0.0 size=N/A time=00:16:16.30 bitrate=N/A speed=  18x    frame=23637 fps=432 q=-0.0 size=N/A time=00:16:25.85 bitrate=N/A speed=  18x    frame=23867 fps=432 q=-0.0 size=N/A time=00:16:35.45 bitrate=N/A speed=  18x    frame=24109 fps=432 q=-0.0 size=N/A time=00:16:45.54 bitrate=N/A speed=  18x    frame=24339 fps=433 q=-0.0 size=N/A time=00:16:55.13 bitrate=N/A speed=  18x    frame=24578 fps=433 q=-0.0 size=N/A time=00:17:05.10 bitrate=N/A speed=18.1x    frame=24824 fps=433 q=-0.0 size=N/A time=00:17:15.36 bitrate=N/A speed=18.1x    frame=25020 fps=433 q=-0.0 size=N/A time=00:17:23.54 bitrate=N/A speed=18.1x    frame=25236 fps=433 q=-0.0 size=N/A time=00:17:32.55 bitrate=N/A speed=18.1x    frame=25444 fps=432 q=-0.0 size=N/A time=00:17:41.22 bitrate=N/A speed=  18x    frame=25652 fps=432 q=-0.0 size=N/A time=00:17:49.90 bitrate=N/A speed=  18x    frame=25866 fps=432 q=-0.0 size=N/A time=00:17:58.82 bitrate=N/A speed=  18x    frame=26082 fps=432 q=-0.0 size=N/A time=00:18:07.83 bitrate=N/A speed=  18x    frame=26324 fps=432 q=-0.0 size=N/A time=00:18:17.93 bitrate=N/A speed=  18x    frame=26548 fps=432 q=-0.0 size=N/A time=00:18:27.27 bitrate=N/A speed=  18x    frame=26774 fps=432 q=-0.0 size=N/A time=00:18:36.69 bitrate=N/A speed=  18x    frame=27012 fps=433 q=-0.0 size=N/A time=00:18:46.62 bitrate=N/A speed=  18x    frame=27235 fps=433 q=-0.0 size=N/A time=00:18:55.92 bitrate=N/A speed=  18x    frame=27476 fps=433 q=-0.0 size=N/A time=00:19:05.97 bitrate=N/A speed=18.1x    frame=27711 fps=433 q=-0.0 size=N/A time=00:19:15.77 bitrate=N/A speed=18.1x    frame=27912 fps=433 q=-0.0 size=N/A time=00:19:24.16 bitrate=N/A speed=  18x    frame=28129 fps=433 q=-0.0 size=N/A time=00:19:33.21 bitrate=N/A speed=  18x    frame=28376 fps=433 q=-0.0 size=N/A time=00:19:43.51 bitrate=N/A speed=18.1x    frame=28619 fps=433 q=-0.0 size=N/A time=00:19:53.65 bitrate=N/A speed=18.1x    frame=28864 fps=434 q=-0.0 size=N/A time=00:20:03.86 bitrate=N/A speed=18.1x    frame=29081 fps=434 q=-0.0 size=N/A time=00:20:12.92 bitrate=N/A speed=18.1x    frame=29328 fps=434 q=-0.0 size=N/A time=00:20:23.22 bitrate=N/A speed=18.1x    frame=29554 fps=434 q=-0.0 size=N/A time=00:20:32.64 bitrate=N/A speed=18.1x    frame=29750 fps=434 q=-0.0 size=N/A time=00:20:40.82 bitrate=N/A speed=18.1x    frame=29937 fps=433 q=-0.0 size=N/A time=00:20:48.62 bitrate=N/A speed=18.1x    frame=30176 fps=433 q=-0.0 size=N/A time=00:20:58.59 bitrate=N/A speed=18.1x    frame=30393 fps=433 q=-0.0 size=N/A time=00:21:07.64 bitrate=N/A speed=18.1x    frame=30626 fps=433 q=-0.0 size=N/A time=00:21:17.35 bitrate=N/A speed=18.1x    frame=30828 fps=433 q=-0.0 size=N/A time=00:21:25.78 bitrate=N/A speed=18.1x    frame=31008 fps=432 q=-0.0 size=N/A time=00:21:33.29 bitrate=N/A speed=  18x    frame=31177 fps=432 q=-0.0 size=N/A time=00:21:40.34 bitrate=N/A speed=  18x    frame=31406 fps=432 q=-0.0 size=N/A time=00:21:49.89 bitrate=N/A speed=  18x    frame=31654 fps=432 q=-0.0 size=N/A time=00:22:00.23 bitrate=N/A speed=  18x    frame=31876 fps=432 q=-0.0 size=N/A time=00:22:09.49 bitrate=N/A speed=  18x    frame=32130 fps=432 q=-0.0 size=N/A time=00:22:20.08 bitrate=N/A speed=  18x    frame=32333 fps=432 q=-0.0 size=N/A time=00:22:28.55 bitrate=N/A speed=  18x    frame=32520 fps=432 q=-0.0 size=N/A time=00:22:36.35 bitrate=N/A speed=  18x    frame=32741 fps=432 q=-0.0 size=N/A time=00:22:45.57 bitrate=N/A speed=  18x    frame=32950 fps=431 q=-0.0 size=N/A time=00:22:54.28 bitrate=N/A speed=  18x    frame=33161 fps=431 q=-0.0 size=N/A time=00:23:03.09 bitrate=N/A speed=  18x    frame=33358 fps=431 q=-0.0 size=N/A time=00:23:11.30 bitrate=N/A speed=  18x    frame=33559 fps=431 q=-0.0 size=N/A time=00:23:19.68 bitrate=N/A speed=  18x    frame=33762 fps=430 q=-0.0 size=N/A time=00:23:28.15 bitrate=N/A speed=  18x    frame=33977 fps=430 q=-0.0 size=N/A time=00:23:37.12 bitrate=N/A speed=17.9x    frame=34192 fps=430 q=-0.0 size=N/A time=00:23:46.09 bitrate=N/A speed=17.9x    frame=34419 fps=430 q=-0.0 size=N/A time=00:23:55.55 bitrate=N/A speed=17.9x    frame=34610 fps=430 q=-0.0 size=N/A time=00:24:03.52 bitrate=N/A speed=17.9x    frame=34795 fps=429 q=-0.0 size=N/A time=00:24:11.28 bitrate=N/A speed=17.9x    frame=35038 fps=430 q=-0.0 size=N/A time=00:24:21.37 bitrate=N/A speed=17.9x    [Parsed_psnr_10 @ 000002ac65370d80] PSNR y:49.923698 u:52.395858 v:52.901302 average:50.655357 min:32.397796 max:inf
[out#0/null @ 000002ac597cbf00] video:15067KiB audio:274236KiB subtitle:0KiB other streams:0KiB global headers:0KiB muxing overhead: unknown
frame=35065 fps=430 q=-0.0 Lsize=N/A time=00:24:22.50 bitrate=N/A speed=17.9x    
